# xmcd
#
# Track frame offsets: 
#        150
#        25737
#        52924
#        71538
#        95514
#        109446
#        129084
#        157812
#        180084
#
# Disc length: 2820 seconds
#
# Revision: 0
# Processed by: cddbd v1.5.2PL0 Copyright (c) Steve Scherf et al.
# Submitted via: ExactAudioCopy v0.99pb4
#
DISCID=620b0209
DTITLE=Michael Lee Firkins - Blacklight Sonatas
DYEAR=2007
DGENRE=Blues
TTITLE0=One Big Punch
TTITLE1=Two Gans Left
TTITLE2=Black Betty
TTITLE3=l-680 Waltz
TTITLE4=The Horse And The Fly
TTITLE5=Now's Your Time Blues
TTITLE6=Theme From Sanfard And Son
TTITLE7=Took The Words Right Outta My Mouth
TTITLE8=Blacklight Sonata
EXTD=
EXTT0=
EXTT1=
EXTT2=
EXTT3=
EXTT4=
EXTT5=
EXTT6=
EXTT7=
EXTT8=
PLAYORDER=
